Patient5_TMGait_0pt45_1_right_08_GRF.mot
version=1
nRows=32
nColumns=19
inDegrees=no
endheader
time	F1x	F1y	F1z	M1x	M1y	M1z	F2x	F2y	F2z	M2x	M2y	M2z	EC1x	EC1y	EC1z	EC2x	EC2y	EC2z
12.85	2.5162	845.5314	25.8697	-293.0581	-27.6356	869.217	2.0849	-4.0671	-0.085718	-0.47974	-0.076307	-4.5404	-0.0592	0.0182	-0.0073	-0.0462	0.0165	0.9585
12.8674	3.6265	840.8481	25.3973	-293.2932	-25.7846	860.5977	1.2911	-2.0365	-0.005763	-0.1374	-0.10391	-2.2612	-0.0592	0.0182	-0.0073	-0.0462	0.0165	0.9585
12.8849	5.2841	837.7074	24.3752	-294.0195	-23.5752	852.5917	0.6702	-0.49722	0.044016	0.12375	-0.10781	-0.52347	-0.0592	0.0182	-0.0073	-0.0462	0.0165	0.9585
12.9023	7.5634	836.711	22.9207	-295.3282	-21.1421	846.0415	0.26762	0.47456	0.074545	0.28859	-0.10002	0.58555	-0.0592	0.0182	-0.0073	-0.0462	0.0165	0.9585
12.9197	10.5036	838.1477	21.251	-297.2865	-18.5985	841.4563	0.050829	0.98919	0.095307	0.37642	-0.091411	1.1927	-0.0592	0.0182	-0.0073	-0.0462	0.0165	0.9585
12.9371	14.0075	842.2091	19.6124	-299.9531	-16.0892	839.2441	-0.042411	1.2134	0.12087	0.41425	-0.097913	1.4766	-0.0592	0.0182	-0.0073	-0.0462	0.0165	0.9585
12.9546	17.8228	848.8406	18.2893	-303.285	-13.8445	839.5305	-0.063985	1.2948	0.15327	0.43048	-0.12684	1.5942	-0.0592	0.0182	-0.0073	-0.0462	0.0165	0.9585
12.972	21.654	857.4003	17.5988	-307.0101	-12.1534	841.8104	-0.047407	1.3221	0.1855	0.44322	-0.16902	1.6419	-0.0592	0.0182	-0.0073	-0.0462	0.0165	0.9585
12.9894	25.3147	866.6144	17.793	-310.6334	-11.2447	844.884	-0.019965	1.3382	0.20589	0.46278	-0.20299	1.6731	-0.0592	0.0182	-0.0073	-0.0462	0.0165	0.9585
13.0069	28.7594	874.9938	18.9346	-313.6076	-11.1485	847.258	-0.0014203	1.3532	0.2055	0.49027	-0.21136	1.6987	-0.0592	0.0182	-0.0073	-0.0462	0.0165	0.9585
13.0243	32.0771	881.3387	20.9009	-315.5219	-11.7013	847.6555	-0.0062369	1.3529	0.17673	0.51507	-0.17866	1.7063	-0.0592	0.0182	-0.0073	-0.0462	0.0165	0.9585
13.0417	35.4158	885.0279	23.4975	-316.1934	-12.6764	845.3617	-0.028233	1.275	0.12521	0.50526	-0.11289	1.6251	-0.0592	0.0182	-0.0073	-0.0462	0.0165	0.9585
13.0591	38.9395	885.9623	26.5544	-315.631	-13.8684	840.1943	-0.057015	0.9855	0.056204	0.40089	-0.024727	1.2942	-0.0592	0.0182	-0.0073	-0.0462	0.0165	0.9585
13.0766	42.8181	884.3625	29.9592	-313.966	-15.1219	832.3148	-0.073134	0.31709	-0.027725	0.12831	0.072107	0.50431	-0.0592	0.0182	-0.0073	-0.0462	0.0165	0.9585
13.094	47.167	880.6161	33.6437	-311.4115	-16.351	822.123	-0.042682	-0.88714	-0.11084	-0.37935	0.14579	-0.91328	-0.0592	0.0182	-0.0073	-0.0462	0.0165	0.9585
13.1114	52.0243	875.3049	37.4915	-308.2666	-17.474	810.2692	0.085171	-2.7182	-0.18261	-1.1569	0.16155	-3.0531	-0.0592	0.0182	-0.0073	-0.0462	0.0165	0.9585
13.1289	57.3782	869.2039	41.2977	-304.8932	-18.357	797.5747	0.37387	-5.0748	-0.20396	-2.1571	0.050222	-5.8078	-0.0592	0.0182	-0.0073	-0.0462	0.0165	0.9585
13.1463	63.2313	863.0913	44.8444	-301.6403	-18.8511	784.8182	0.88801	-7.4529	-0.093069	-3.1657	-0.31139	-8.6075	-0.0592	0.0182	-0.0073	-0.0462	0.0165	0.9585
13.1637	69.6013	857.6674	47.9537	-298.8053	-18.8245	772.6871	1.655	-8.6747	0.26556	-3.6888	-1.0738	-10.072	-0.0592	0.0182	-0.0073	-0.0462	0.0165	0.9585
13.1811	76.5362	853.4686	50.534	-296.606	-18.2011	761.734	2.615	-6.6434	0.99391	-2.8436	-2.3511	-7.7334	-0.0592	0.0182	-0.0073	-0.0462	0.0165	0.9585
13.1986	84.023	850.716	52.5866	-295.1389	-17.0009	752.2383	3.5344	1.7505	2.1753	0.68659	-4.1295	2.0304	-0.0592	0.0182	-0.0073	-0.0462	0.0165	0.9585
13.216	91.8692	849.0374	54.1215	-294.2876	-15.3138	743.9619	3.9012	20.332	3.7733	8.5293	-6.1235	23.6699	-0.0592	0.0182	-0.0073	-0.0462	0.0165	0.9585
13.2334	99.6256	847.157	55.0809	-293.6225	-13.2544	735.9484	2.8322	52.6165	5.5085	22.1909	-7.5993	61.2887	-0.0592	0.0182	-0.0073	-0.0462	0.0165	0.9585
13.2509	106.6094	842.6482	55.257	-292.3072	-10.8855	726.3001	-0.90199	99.7662	6.6813	42.188	-7.2119	116.2686	-0.0592	0.0182	-0.0073	-0.0462	0.0165	0.9585
13.2683	112.0282	831.8984	54.1903	-289.0554	-8.0765	712.0568	-8.0555	158.561	6.7708	67.1415	-4.0782	184.9354	-0.0592	0.0182	-0.0073	-0.0462	0.0165	0.9585
13.2857	115.2148	810.3627	51.158	-282.1533	-4.3711	689.3389	-18.0431	220.4096	5.2664	93.2875	2.0457	257.3708	-0.0592	0.0182	-0.0073	-0.0462	0.0165	0.9585
13.3031	115.9581	773.3349	45.496	-269.7238	0.86849	653.9435	-29.2503	274.8242	0.70235	115.9413	11.9811	321.3817	-0.0592	0.0182	-0.0073	-0.0462	0.0165	0.9585
13.3206	114.2219	719.0631	37.3823	-251.0467	7.5209	604.4245	-40.3109	317.6537	-6.7952	133.228	24.9901	371.943	-0.0592	0.0182	-0.0073	-0.0462	0.0165	0.9585
13.338	109.76	649.6585	28.1501	-226.9314	14.2501	542.9704	-49.9282	352.072	-15.3204	146.6225	38.478	412.3114	-0.0592	0.0182	-0.0073	-0.0462	0.0165	0.9585
13.3554	102.2221	569.0124	19.333	-198.8068	19.5075	473.2347	-57.0636	383.6638	-22.8584	158.759	49.8391	448.3841	-0.0592	0.0182	-0.0073	-0.0462	0.0165	0.9585
13.3729	91.5483	481.652	11.8645	-168.2917	22.4081	399.1242	-61.0341	418.1073	-28.4561	172.2968	57.7476	486.133	-0.0592	0.0182	-0.0073	-0.0462	0.0165	0.9585
13.3903	78.1394	392.5859	6.0751	-137.1649	22.7855	324.6716	-61.6376	459.9456	-32.2664	189.3261	62.2454	530.3286	-0.0592	0.0182	-0.0073	-0.0462	0.0165	0.9585
